<?xml version="1.0" encoding="utf-8"?>
<!-- Generator: Adobe Illustrator 21.1.0, SVG Export Plug-In . SVG Version: 6.00 Build 0)  -->
<svg version="1.1" id="Layer_1" xmlns="http://www.w3.org/2000/svg" x="0px" y="0px"
     viewBox="0 0 132 55" style="enable-background:new 0 0 132 55;" xml:space="preserve">
<style type="text/css">
	.st0{fill:none;}
	.st1{fill:#78706A;}
</style>
    <g>
	<path class="st0" d="M97,25.4c-0.1,0-0.3,0.1-0.4,0.1H13.3c-0.7,0-1.3-0.7-1.3-1.5s0.6-1.5,1.3-1.5H96l-0.8-2.4
		c-0.4-1.2,0.7-2.3,1.9-1.9l26.9,9.2c1.1,0.4,1.4,1.7,0.6,2.5l-3.2,3.2h7.6V3H3v30h96.6l-2.5-7.2L97,25.4z M117,14.2
		c-0.6-0.6-0.6-1.6,0-2.3c0.6-0.6,1.6-0.6,2.3,0l4.8,4.9c0.6,0.6,0.6,1.6,0,2.3l-4.8,4.9c-0.6,0.6-1.6,0.6-2.3,0
		c-0.6-0.6-0.6-1.6,0-2.3l3.7-3.8L117,14.2z M14.5,11h61.7c1.4,0,2.5,1.1,2.5,2.5S77.6,16,76.2,16H14.5c-1.4,0-2.5-1.1-2.5-2.5
		S13.1,11,14.5,11z"/>
        <path class="st1" d="M14.5,16h61.7c1.4,0,2.5-1.1,2.5-2.5S77.6,11,76.2,11H14.5c-1.4,0-2.5,1.1-2.5,2.5S13.1,16,14.5,16z"/>
        <path class="st1" d="M122.6,17.7l-0.3,0.3l0.3,0.3C122.5,18.1,122.5,17.9,122.6,17.7z"/>
        <polygon class="st1" points="99.6,33 99.6,33 100.6,36 100.6,36 	"/>
        <path class="st1" d="M12,24c0,0.8,0.6,1.5,1.3,1.5h83.3c0.1,0,0.3,0,0.4-0.1l0.1,0.3L96,22.5H13.3C12.6,22.5,12,23.2,12,24z"/>
        <g>
		<path class="st1" d="M131.6,48.2L119.4,36h9.6c1.7,0,3-1.3,3-3V3c0-1.7-1.3-3-3-3H3C1.3,0,0,1.3,0,3v30c0,1.7,1.3,3,3,3h97.6
			l3.7,10.9c0.4,1.1,1.7,1.4,2.5,0.6l5.7-5.7l12.7,12.7c0.6,0.6,1.5,0.6,2.1,0l4.2-4.2C132.2,49.8,132.2,48.8,131.6,48.2z M3,33V3
			h126v30h-7.6l3.2-3.2c0.8-0.8,0.5-2.1-0.6-2.5l-26.9-9.2c-1.2-0.4-2.3,0.7-1.9,1.9l0.8,2.4l1.1,3.3l2.5,7.2H3V33z M126.3,51.4
			l-12.7-12.7c-0.6-0.6-1.5-0.6-2.1,0l-5,5l-2.6-7.7l-1-3L99,22l21.7,7.4l-3.6,3.6l-1.4,1.4c-0.4,0.4-0.5,1-0.3,1.6
			c0.1,0.2,0.2,0.4,0.3,0.6l12.7,12.7L126.3,51.4z"/>
            <path class="st1" d="M117,24c0.6,0.6,1.6,0.6,2.3,0l4.8-4.9c0.6-0.6,0.6-1.6,0-2.3l-4.8-4.9c-0.6-0.6-1.6-0.6-2.3,0
			c-0.6,0.6-0.6,1.6,0,2.3l3.7,3.8l-3.7,3.8C116.3,22.4,116.3,23.4,117,24z"/>
	</g>
</g>
</svg>
