<svg xmlns="http://www.w3.org/2000/svg" version="1.1" viewBox="0 0 24 24" xml:space="preserve" focusable="false">
<title>Dialog</title>
<path d="M12,0.9c6.6,0,12,4.4,12,9.9c0,5.4-5.4,9.9-12,9.9c-1.4,0-2.7-0.2-4-0.6l-6.4,3     c-0.1,0-0.1,0-0.2,0c-0.1,0-0.3-0.1-0.4-0.2c-0.1-0.2-0.2-0.4-0.1-0.6l2.4-4.8C1.2,15.7,0,13.3,0,10.8C0,5.3,5.4,0.9,12,0.9z      M12,19.6c6.1,0,11-4,11-8.9s-4.9-8.9-11-8.9s-11,4-11,8.9c0,2.4,1.2,4.6,3.3,6.3c0.2,0.1,0.2,0.4,0.1,0.6l-1.9,3.9l5.3-2.5     C7.9,19,8,19,8.1,19.1C9.4,19.5,10.7,19.6,12,19.6z" fill="#3E3832"/>
</svg>
