<?xml version="1.0" encoding="UTF-8"?>
<svg width="36px" height="36px" viewBox="0 0 36 36" version="1.1" xmlns="http://www.w3.org/2000/svg" xmlns:xlink="http://www.w3.org/1999/xlink">
    <g id="NAV-ansatt_ikon-Copy" stroke="none" stroke-width="1" fill="none" fill-rule="evenodd">
        <g id="a" fill="#3E3832">
            <g id="b">
                <path d="M35.9857887,18.0713121 C35.9857887,27.9488408 27.9794505,35.9562038 18.1029033,35.9562038 C8.22635608,35.9562038 0.219788651,27.9488408 0.219788651,18.0713121 C0.219788651,8.19401274 8.22635608,0.186649682 18.1029033,0.186649682 C27.9794505,0.186649682 35.9857887,8.19401274 35.9857887,18.0713121" id="Fill-131"></path>
            </g>
        </g>
        <path d="M8.716,23 L8.716,18.996 C8.716,18.4826667 8.69033333,17.96 8.639,17.428 C8.58766667,16.896 8.54333333,16.3873333 8.506,15.902 L8.506,15.902 L8.562,15.902 L9.5,17.848 L12.356,23 L14.022,23 L14.022,13.844 L12.468,13.844 L12.468,17.82 C12.468,18.3333333 12.4936667,18.863 12.545,19.409 C12.5963333,19.955 12.6406667,20.466 12.678,20.942 L12.678,20.942 L12.622,20.942 L11.684,18.996 L8.828,13.844 L7.162,13.844 L7.162,23 L8.716,23 Z M16.808,23 L17.522,20.522 L20.602,20.522 L21.316,23 L23.024,23 L20.042,13.844 L18.138,13.844 L15.156,23 L16.808,23 Z M20.238,19.248 L17.9,19.248 L18.222,18.128 C18.3713333,17.6426667 18.5113333,17.1456667 18.642,16.637 C18.7726667,16.1283333 18.9033333,15.6173333 19.034,15.104 L19.034,15.104 L19.09,15.104 C19.2206667,15.608 19.3536667,16.1166667 19.489,16.63 C19.6243333,17.1433333 19.7666667,17.6426667 19.916,18.128 L19.916,18.128 L20.238,19.248 Z M27.49,23 L30.332,13.844 L28.666,13.844 L27.392,18.45 C27.252,18.9726667 27.1236667,19.4673333 27.007,19.934 C26.8903333,20.4006667 26.7526667,20.9 26.594,21.432 L26.594,21.432 L26.538,21.432 C26.3793333,20.9 26.2416667,20.4006667 26.125,19.934 C26.0083333,19.4673333 25.8753333,18.9726667 25.726,18.45 L25.726,18.45 L24.438,13.844 L22.716,13.844 L25.572,23 L27.49,23 Z" id="NAV" fill="#FFFFFF" fill-rule="nonzero"></path>
    </g>
</svg>