<?xml version="1.0" encoding="utf-8"?>
<!-- Generator: Adobe Illustrator 22.1.0, SVG Export Plug-In . SVG Version: 6.00 Build 0)  -->
<svg version="1.1" id="Layer_1" xmlns="http://www.w3.org/2000/svg" xmlns:xlink="http://www.w3.org/1999/xlink" x="0px" y="0px"
	 viewBox="0 0 24 24" style="enable-background:new 0 0 24 24;" xml:space="preserve">
<style type="text/css">
	.st0{fill:none;}
	.st1{fill:#3E3832;}
</style>
<g>
	<path class="st0" d="M18.1,4H3.9C2.3,4,1,5.3,1,6.9v9.2C1,17.7,2.3,19,3.9,19H11v-7h10V6.9C21,5.3,19.7,4,18.1,4z"/>
	<path class="st1" d="M3.9,19C2.3,19,1,17.7,1,16.1V6.9C1,5.3,2.3,4,3.9,4h14.2C19.7,4,21,5.3,21,6.9V12h1V6.9C22,4.7,20.3,3,18.1,3
		H3.9C1.7,3,0,4.7,0,6.9v9.2C0,18.3,1.7,20,3.9,20H11v-1H3.9z"/>
</g>
<g id="line_x2F_bubble-chat-2-copy">
	<path class="st1" d="M18.5,12.8c-3.2,0-5.8,2.1-5.8,4.7c0,1.2,0.5,2.3,1.5,3.1l-1,2c-0.1,0.2-0.1,0.4,0.1,0.5
		c0.1,0.1,0.2,0.1,0.3,0.1c0.1,0,0.2,0,0.2,0l2.9-1.3c0.6,0.1,1.2,0.2,1.8,0.2c3.2,0,5.8-2.1,5.8-4.7C24.2,14.9,21.7,12.8,18.5,12.8
		z M18.5,21.2c-0.6,0-1.2-0.1-1.7-0.2c-0.1,0-0.2,0-0.3,0l-1.8,0.8l0.6-1.1c0.1-0.2,0-0.5-0.1-0.6c-0.9-0.7-1.4-1.6-1.4-2.6
		c0-2.1,2.1-3.7,4.8-3.7s4.8,1.7,4.8,3.7C23.3,19.5,21.1,21.2,18.5,21.2z"/>
</g>
<g id="Rectangle-Copy-3">
	<path class="st1" d="M3.6,8h9.8C13.7,8,14,8.3,14,8.6v0c0,0.3-0.3,0.6-0.6,0.6H3.6C3.3,9.2,3,8.9,3,8.6v0C3,8.3,3.3,8,3.6,8z"/>
</g>
<g id="Rectangle-Copy-4">
	<path class="st1" d="M3.6,11h9.8c0.3,0,0.6,0.3,0.6,0.6v0c0,0.3-0.3,0.6-0.6,0.6H3.6c-0.3,0-0.6-0.3-0.6-0.6v0
		C3,11.3,3.3,11,3.6,11z"/>
</g>
<g id="Rectangle-Copy-5">
	<path class="st1" d="M3.6,14h1.8C5.7,14,6,14.3,6,14.6v0c0,0.3-0.3,0.6-0.6,0.6H3.6c-0.3,0-0.6-0.3-0.6-0.6v0C3,14.3,3.3,14,3.6,14
		z"/>
</g>
</svg>
