<?xml version="1.0" encoding="UTF-8"?>
<svg width="29px" height="53px" viewBox="0 0 29 53" version="1.1" xmlns="http://www.w3.org/2000/svg" xmlns:xlink="http://www.w3.org/1999/xlink">
    <!-- Generator: Sketch 60.1 (88133) - https://sketch.com -->
    <title>dameikon</title>
    <desc>Created with Sketch.</desc>
    <defs>
        <path d="M8.81603339,0.138889699 L8.81481481,0.0939831385 C8.81481481,2.6173913 11.1363013,5.23478261 14,5.23478261 C16.834176,5.23478261 19.1372619,2.67107996 19.1844469,0.172053685 C20.6667782,0.573628572 22.8718375,1.68604526 24.7054721,3.51362862 C26.5382813,5.34038943 28,8.08777192 28,10.2197413 L28,10.2197413 L28,23.0330435 L0,23.0330435 L0,10.2197413 C0,8.09208193 1.43085724,5.34938078 3.23039502,3.52471248 C5.0890934,1.64005739 7.34111187,0.512489499 8.81603339,0.138889699 Z" id="path-1"></path>
        <path d="M0.000484150586,38.6387896 L1.13686838e-13,15.54952 C1.13686838e-13,6.96192 6.1908,0 13.8292,0 C21.46592,0 28.0000229,5.9724 28.0000229,14.56 L28.0000229,15.54952 C28.0000229,15.54952 28.0567163,25.4284889 22.521615,30.243676 C21.3011864,29.68 20.0074777,29.0332705 19.2363453,28.7435567 L19.1841357,28.1563379 L19.2123699,28.1077037 C21.6914846,26.5217071 23.6151396,23.8498413 24.542544,20.6213057 C24.6560782,20.6844607 24.7843248,20.72 24.92,20.72 C25.3842874,20.72 25.76,20.3055634 25.76,19.7922212 L25.76,16.0483164 C25.76,15.8496711 25.7037402,15.6657556 25.6078586,15.5149155 C25.4481077,15.3459698 25.2255998,15.2409827 24.9792385,15.240468 C24.8667362,15.240468 24.7596379,15.2643964 24.6608913,15.3041074 C13.3595657,16.6435898 9.41756269,8.96051632 9.08447719,8.96000721 C9.08447719,8.96000721 4.35790557,13.3842942 3.56842416,15.008372 C3.56842416,15.008372 3.51340119,15.3209082 3.44216609,15.2694876 C3.34292823,15.2292674 3.23681249,15.205339 3.12381889,15.2048299 C2.63696383,15.2043208 2.24099494,15.6131404 2.24001239,16.1181828 C2.23999724,16.0934305 2.23999599,16.0687246 2.24000861,16.044065 L2.24,16.0483164 L2.24,19.7922212 C2.24,20.3055634 2.61668598,20.72 3.08,20.72 C3.18267761,20.72 3.28102323,20.6997308 3.37193117,20.6626053 C4.30957716,23.8926945 6.2454182,26.5616642 8.73619132,28.1371994 L8.74541992,28.1563379 L8.72195906,28.7128686 C5.80296126,29.7726136 0.0611235833,34.3785796 0.000484150586,38.6387896 Z" id="path-3"></path>
    </defs>
    <g id="Dialog-høst-2019" stroke="none" stroke-width="1" fill="none" fill-rule="evenodd">
        <g id="dialog_ingen-innhold" transform="translate(-827.000000, -261.000000)">
            <g id="dameikon" transform="translate(822.000000, 259.600000)">
                <g id="mennesker/kvinne/-forfra" transform="translate(0.000000, -0.000000)">
                    <g id="Group" transform="translate(0.000000, 1.120000)">
                        <g id="Group-2" transform="translate(6.720000, 3.360000)">
                            <g id="hud" fill="#E7E5E2" fill-rule="nonzero">
                                <path d="M12.2710377,0.28 C18.2579747,0.28 23.1564718,5.74398761 23.701,12.7066531 C24.0918896,12.8960617 24.36,13.3208169 24.36,13.8083164 L24.36,17.5522212 C24.36,18.1700438 23.9293381,18.6867071 23.3632661,18.7528496 L23.24,18.76 C23.1741815,18.76 23.1098034,18.7539417 23.0472924,18.7423282 C22.0869604,21.8590774 20.2060753,24.4473871 17.7955223,26.0313065 L17.9188998,27.4196515 L17.9182028,27.4761219 L16.6153148,38.92 L8.35204848,38.92 L8.3177244,38.6795723 L6.72024846,27.4564143 L6.77875468,26.0523001 C4.35629669,24.4725158 2.46500907,21.8801213 1.49910444,18.7539639 L1.4,18.76 C0.775074334,18.76 0.28,18.2138473 0.28,17.5522212 L0.28,13.8083164 C0.28,13.3646239 0.502621072,12.9726632 0.837712481,12.7625575 C1.35944896,5.7736472 6.26790722,0.28 12.2710377,0.28 Z" id="Combined-Shape"></path>
                            </g>
                            <g id="mennesker/X⚙️/⚙️-ansikt-voksen/forfra/-glad" transform="translate(3.325000, 12.460000)">
                                <g id="Group" transform="translate(3.675000, 0.000000)">
                                    <path d="M1.2209925,3.035865 C0.4613175,3.09309 0.2486925,1.973265 0.4775925,1.24194 C0.5206425,1.10334 0.7721175,0.47229 1.2173175,0.47229 C1.6619925,0.47229 1.8583425,0.817215 1.8856425,0.87654 C2.2127175,1.58949 2.0520675,2.972865 1.2209925,3.035865" id="Fill-42" fill="#635E59"></path>
                                    <path d="M9.6994275,3.035865 C10.4591025,3.09309 10.6717275,1.973265 10.4428275,1.24194 C10.3997775,1.10334 10.1483025,0.47229 9.7031025,0.47229 C9.2584275,0.47229 9.0620775,0.817215 9.0347775,0.87654 C8.7077025,1.58949 8.8683525,2.972865 9.6994275,3.035865" id="Fill-44" fill="#635E59"></path>
                                    <path d="M5.70111758,4.3233116 C6.14788495,4.25453838 6.45300753,4.29769853 6.56228082,4.43180665 C6.97473447,4.9387187 6.84280817,5.47500891 6.13518674,5.91525831 C5.76313879,6.1466428 5.25102709,6.22808158 4.97991211,6.10809878 C4.84733963,6.0494284 4.69230666,6.1093379 4.63363628,6.24191039 C4.5749659,6.37448287 4.6348754,6.52951584 4.76744789,6.58818622 C5.21553262,6.78648755 5.90461428,6.67690605 6.41248587,6.36104995 C7.37410143,5.76277714 7.59417062,4.86817954 6.96939434,4.10031978 C6.70500373,3.7758403 6.23698759,3.70963856 5.62124242,3.8044234 C5.47795541,3.82648032 5.37967899,3.96051806 5.4017359,4.10380508 C5.42379282,4.24709209 5.55783056,4.34536851 5.70111758,4.3233116 Z" id="Stroke-46" fill="#59514B" fill-rule="nonzero"></path>
                                    <path d="M8.69340583,8.15085645 C8.6697272,8.20509191 8.61542705,8.30893447 8.52815983,8.44571684 C8.38043803,8.67725555 8.1949365,8.90938512 7.96963394,9.12585099 C7.29824908,9.77090321 6.42438319,10.1439 5.31217523,10.1097859 C4.22770504,10.0765226 3.35774531,9.70928161 2.67567339,9.11708125 C2.42524826,8.89965279 2.21849733,8.66680074 2.05324065,8.43470049 C1.95578891,8.29783113 1.89493947,8.19405658 1.86832647,8.13997931 C1.80431215,8.00990302 1.64697061,7.9563492 1.51689431,8.02036353 C1.38681802,8.08437785 1.3332642,8.24171939 1.39727853,8.37179569 C1.43583621,8.45014442 1.51087349,8.57811535 1.62556985,8.73920449 C1.81389336,9.00370172 2.04807474,9.26744715 2.3314794,9.51350968 C3.10144655,10.182024 4.08544829,10.5974061 5.29607977,10.6345391 C6.556766,10.6732074 7.56463405,10.2430138 8.33336652,9.50443204 C8.59040571,9.25747428 8.8016921,8.99307853 8.97075368,8.72809192 C9.07355649,8.5669591 9.14042041,8.43908984 9.17454917,8.36091855 C9.23255622,8.22805449 9.17187262,8.07332288 9.03900855,8.01531583 C8.90614449,7.95730878 8.75141288,8.01799238 8.69340583,8.15085645 Z" id="Stroke-48" fill="#59514B" fill-rule="nonzero"></path>
                                </g>
                            </g>
                        </g>
                        <g id="Group-1">
                            <g id="mennesker/X⚙️/⚙️-kropp/voksen/Forfra/-rundhals" transform="translate(5.040000, 28.560000)">
                                <g id="Group" transform="translate(0.000000, 1.046957)">
                                    <mask id="mask-2" fill="white">
                                        <use xlink:href="#path-1"></use>
                                    </mask>
                                    <use id="Mask" fill="#D8A25D" xlink:href="#path-1"></use>
                                    <g id="STYLING/farge/-Fokus-oransje/+20" mask="url(#mask-2)" fill="#D8A25C">
                                        <g transform="translate(-18.666667, -14.657391)" id="Fill-46">
                                            <polygon points="0 52.3478261 65.3333333 52.3478261 65.3333333 0 0 0"></polygon>
                                        </g>
                                    </g>
                                </g>
                            </g>
                            <g id="mennesker/X⚙️/⚙️kvinne/-hår/-lang-side-copy-2">
                                <g id="Group-5" transform="translate(5.040000, 1.120000)">
                                    <g id="hårfarge/-gull">
                                        <mask id="mask-4" fill="white">
                                            <use xlink:href="#path-3"></use>
                                        </mask>
                                        <use id="Path" fill="#FAA738" xlink:href="#path-3"></use>
                                        <g id="mennesker/X⚙️/⚙️-hårfarge/-sort" mask="url(#mask-4)" fill="#3E3832">
                                            <g transform="translate(-5.040000, -3.360000)" id="hårfarge/-sort">
                                                <rect x="0" y="0" width="38.64" height="44.24"></rect>
                                            </g>
                                        </g>
                                    </g>
                                </g>
                            </g>
                        </g>
                    </g>
                </g>
                <g id="nav-id/-kort/-rød" transform="translate(21.000000, 37.955556)">
                    <g id="NAV-Copy-2" transform="translate(0.000000, -0.518519)">
                        <g id="Group-11">
                            <g id="Navansatt-dame">
                                <g transform="translate(0.000000, 0.388889)">
                                    <path d="M9.30421795,6.35185185 L0.695267034,6.35185185 C0.311067621,6.35185185 0,6.05710193 0,5.69305651 L0,1.30743149 C0,0.943386062 0.311067621,0.648148148 0.695267034,0.648148148 L9.30421795,0.648148148 C9.68841737,0.648148148 10,0.943386062 10,1.30743149 L10,5.69305651 C10,6.05710193 9.68841737,6.35185185 9.30421795,6.35185185" id="Fill-97" fill="#D2242A"></path>
                                    <path d="M7.14651872,3.76356029 C7.14651872,4.84061343 6.206563,5.71480324 5.04665962,5.71480324 C3.88478362,5.71480324 2.94433474,4.84061343 2.94433474,3.76356029 C2.94433474,2.68650715 3.88478362,1.81231733 5.04665962,1.81231733 C6.206563,1.81231733 7.14651872,2.68650715 7.14651872,3.76356029" id="Fill-98" fill="#FFFFFF"></path>
                                    <polygon id="Fill-99" fill="#FFFFFF" points="2.32453603 4.62364583 1.91472323 4.62364583 2.35264593 3.62673058 2.76344505 3.62673058"></polygon>
                                    <polygon id="Fill-100" fill="#FFFFFF" points="7.48941023 4.62364583 7.23543478 4.62364583 7.67335749 3.62673058 7.92733293 3.62673058"></polygon>
                                    <polygon id="Fill-101" fill="#FFFFFF" points="8.19038245 4.62364583 8.0828744 4.62364583 8.51981079 3.62673058 8.62731884 3.62673058"></polygon>
                                    <path d="M3.45051027,4.61883756 L3.77303442,4.61883756 C3.78980173,4.61883756 3.80262379,4.60693136 3.80262379,4.59181965 L3.80262379,3.65901469 C3.80262379,3.64390298 3.78980173,3.63199678 3.77303442,3.63199678 L3.44705817,3.63199678 C3.4253593,3.63199678 3.4095783,3.64756643 3.4095783,3.66725745 L3.28135769,3.96079106 C3.27346719,3.97590278 3.28628925,3.99422001 3.30354972,3.99422001 L3.39576993,3.99422001 C3.4095783,3.99422001 3.42141405,4.00383655 3.42141405,4.01803241 L3.42141405,4.59181965 C3.42141405,4.60693136 3.43423611,4.61883756 3.45051027,4.61883756" id="Fill-102" fill="#C52D35"></path>
                                    <path d="M4.15123591,4.61883756 L4.47474638,4.61883756 C4.49151369,4.61883756 4.50581522,4.60693136 4.50581522,4.59181965 L4.50581522,3.65901469 C4.50581522,3.64390298 4.49151369,3.63199678 4.47474638,3.63199678 L3.97172705,3.63199678 C3.95052134,3.63199678 3.93375403,3.64756643 3.93375403,3.66725745 L3.80504026,3.96079106 L3.7606562,3.99422001 L4.01808374,3.99422001 C4.07528986,3.99422001 4.12213969,4.03634964 4.12213969,4.09038547 L4.12213969,4.59181965 C4.12213969,4.60693136 4.13496176,4.61883756 4.15123591,4.61883756" id="Fill-103" fill="#C52D35"></path>
                                    <path d="M5.59790962,3.63208837 L5.27439915,3.63208837 C5.258125,3.63208837 5.24480978,3.64399457 5.24480978,3.65910628 L5.24480978,4.59191123 C5.24480978,4.60702295 5.258125,4.61892915 5.27439915,4.61892915 L5.60136171,4.61892915 C5.62306059,4.61892915 5.63884159,4.6033595 5.63884159,4.58366848 L5.7670622,4.29013486 C5.7749527,4.27410729 5.76262379,4.25670592 5.74289754,4.25670592 L5.65363627,4.25670592 C5.63884159,4.25670592 5.62848531,4.24571558 5.62848531,4.23335145 L5.62848531,3.65910628 C5.62848531,3.64399457 5.61369062,3.63208837 5.59790962,3.63208837" id="Fill-104" fill="#C52D35"></path>
                                    <path d="M4.26727556,4.61883756 L4.47982589,4.61883756 C4.50053845,4.61883756 4.51730576,4.60280998 4.51730576,4.58403482 L4.64552637,4.28958535 C4.65292371,4.2740157 4.64059481,4.2561564 4.62185487,4.2561564 L4.53210044,4.2561564 L4.26727556,4.61883756 Z" id="Fill-105" fill="#C52D35"></path>
                                    <path d="M6.46359601,3.63208837 L6.84825785,3.63208837 C6.86699779,3.63208837 6.880313,3.64857387 6.8724225,3.66460145 L6.46507548,4.60381743 C6.46211655,4.61343398 6.45274658,4.61892915 6.44140399,4.61892915 L6.09323571,4.61892915 L6.43844505,3.64811594 C6.4423903,3.6384994 6.45274658,3.63208837 6.46359601,3.63208837" id="Fill-106" fill="#C52D35"></path>
                                    <path d="M5.98128925,3.63208837 L5.43733796,3.63208837 C5.39887178,3.63208837 5.59366848,3.6668911 5.60747685,3.69940419 L5.99213869,4.58778986 C6.00002919,4.60748088 6.01975543,4.61892915 6.04145431,4.61892915 L6.37137581,4.61892915 L6.03208434,3.66551731 C6.024687,3.6444525 6.00397444,3.63208837 5.98128925,3.63208837" id="Fill-107" fill="#C52D35"></path>
                                    <path d="M5.27104569,3.94851852 C5.27104569,4.14726047 5.2439221,4.15916667 5.2439221,4.15916667 C5.2439221,4.15916667 5.21334642,3.96866747 5.05504328,3.96866747 C4.89969907,3.96866747 4.86419183,4.05292673 4.86419183,4.11566324 C4.86419183,4.18847424 4.94358998,4.25670592 4.98797403,4.25670592 L5.27104569,4.25670592 L5.10386574,4.60061192 C5.09794787,4.61206019 5.08611212,4.61892915 5.0727969,4.61892915 L4.94408313,4.61892915 C4.80945149,4.61892915 4.45783112,4.45498994 4.45783112,4.13764392 C4.45783112,3.81983998 4.7192039,3.63208837 4.93717895,3.63208837 C5.11718096,3.63208837 5.27104569,3.74702899 5.27104569,3.94851852 Z" id="Fill-108" fill="#C52D35"></path>
                                    <path d="M5.51727858,1.55349487 L4.62515902,1.55349487 C4.55907609,1.55349487 4.50581522,1.50403835 4.50581522,1.44267562 L4.50581522,1.30300674 C4.50581522,1.24210195 4.55907609,1.1921875 4.62515902,1.1921875 L5.51727858,1.1921875 C5.58336151,1.1921875 5.63662238,1.24210195 5.63662238,1.30300674 L5.63662238,1.44267562 C5.63662238,1.50403835 5.58336151,1.55349487 5.51727858,1.55349487" id="Fill-109" fill="#5A1F57"></path>
                                    <polygon id="Fill-110" fill="#C2B5CF" points="4.8129529 1.42592593 5.3297806 1.42592593 5.3297806 0.12962963 4.8129529 0.12962963"></polygon>
                                </g>
                            </g>
                        </g>
                    </g>
                </g>
            </g>
        </g>
    </g>
</svg>