<?xml version="1.0" encoding="UTF-8"?>
<svg width="32px" height="32px" viewBox="0 0 32 32" version="1.1" xmlns="http://www.w3.org/2000/svg" xmlns:xlink="http://www.w3.org/1999/xlink">
    <!-- Generator: Sketch 55.2 (78181) - https://sketchapp.com -->
    <title>Group</title>
    <desc>Created with Sketch.</desc>
    <g id="Ikoner-dialog" stroke="none" stroke-width="1" fill="none" fill-rule="evenodd">
        <g id="ikoner-dialog" transform="translate(-109.000000, -392.000000)">
            <g id="Group" transform="translate(109.000000, 392.000000)">
                <circle id="Oval-Copy-2" fill="#0067C5" cx="16" cy="16" r="16"></circle>
                <path d="M17.5,15 L22.5,15 C23.0522847,15 23.5,15.4477153 23.5,16 C23.5,16.5522847 23.0522847,17 22.5,17 L17.5,17 L17.5,22 C17.5,22.5522847 17.0522847,23 16.5,23 C15.9477153,23 15.5,22.5522847 15.5,22 L15.5,17 L10.5,17 C9.94771525,17 9.5,16.5522847 9.5,16 C9.5,15.4477153 9.94771525,15 10.5,15 L15.5,15 L15.5,10 C15.5,9.44771525 15.9477153,9 16.5,9 C17.0522847,9 17.5,9.44771525 17.5,10 L17.5,15 Z" id="Combined-Shape" fill="#FFFFFF" fill-rule="nonzero"></path>
            </g>
        </g>
    </g>
</svg>